<svg width="32" height="32" viewBox="0 0 32 32" fill="none" xmlns="http://www.w3.org/2000/svg">
<path d="M28.4968 17.5586C29.327 17.5586 30 16.8856 30 16.0554C30 15.2252 29.327 14.5522 28.4968 14.5522C27.6667 14.5522 26.9937 15.2252 26.9937 16.0554C26.9937 16.8856 27.6667 17.5586 28.4968 17.5586Z" fill="black"/>
<path d="M3.50111 17.5586C4.3313 17.5586 5.00429 16.8856 5.00429 16.0554C5.00429 15.2252 4.3313 14.5522 3.50111 14.5522C2.67092 14.5522 1.99792 15.2252 1.99792 16.0554C1.99792 16.8856 2.67092 17.5586 3.50111 17.5586Z" fill="black"/>
<path d="M29.1659 21.9157C28.7526 21.677 28.2729 21.6574 27.862 21.8222C27.7612 21.8566 27.6652 21.8812 27.5766 21.8935C26.317 22.1051 25.269 20.9956 25.0918 19.7999C25.0082 19.1603 24.6392 18.5649 24.0389 18.218C23.4263 17.8637 22.7128 17.849 22.1101 18.1122C21.3917 18.3508 20.7004 18.2918 20.0558 17.9547C19.8836 17.8539 19.7163 17.7382 19.5588 17.6152C19.7753 17.1355 19.8959 16.6016 19.8959 16.0407C19.8959 15.4798 19.7778 14.9607 19.5662 14.4859C19.7212 14.3653 19.8836 14.2546 20.0533 14.1562C20.6979 13.8191 21.3892 13.7601 22.1076 13.9987C22.7104 14.262 23.4238 14.2448 24.0364 13.8905C24.6392 13.5436 25.0082 12.9458 25.0894 12.3061C25.1952 11.6197 25.5544 11.0071 26.0759 10.6036C26.5655 10.2125 27.2494 10.0722 27.8571 10.2814C28.268 10.4437 28.7477 10.4265 29.161 10.1879C29.8794 9.7721 30.1254 8.85444 29.7096 8.13606C29.2939 7.41768 28.3762 7.17166 27.6578 7.58744C27.2445 7.82608 26.9887 8.23201 26.9247 8.66992C26.905 8.77571 26.8779 8.8692 26.846 8.95285C26.3982 10.151 24.9147 10.5028 23.7904 10.0575C23.195 9.809 22.4939 9.83114 21.8936 10.178C21.281 10.5323 20.9095 11.1424 20.8357 11.7944C20.6831 12.5349 20.2871 13.1057 19.672 13.4944C19.4998 13.5928 19.3202 13.6764 19.1381 13.7503C18.5083 12.9015 17.5365 12.3209 16.427 12.2126C16.3975 12.0084 16.3802 11.8018 16.3802 11.5927C16.4098 10.8644 16.705 10.2371 17.2708 9.73519C17.7998 9.34402 18.1418 8.71913 18.1418 8.01059C18.1418 7.30205 17.8096 6.69684 17.2979 6.30567H17.3004C16.7591 5.87267 16.4098 5.25516 16.3212 4.60074C16.2277 3.98077 16.4491 3.31652 16.9338 2.89828C17.2807 2.62274 17.5046 2.19958 17.5046 1.7223C17.5046 0.893213 16.8329 0.219116 16.0014 0.219116C15.1698 0.219116 14.4982 0.890753 14.4982 1.7223C14.4982 2.19958 14.7221 2.6252 15.0689 2.89828C15.1501 2.96963 15.219 3.03851 15.2732 3.10986C16.0875 4.0964 15.6496 5.55777 14.6999 6.30813H14.7024C14.1882 6.6993 13.8585 7.31681 13.8585 8.01305C13.8585 8.70929 14.2005 9.34648 14.7294 9.73766C15.2953 10.2395 15.5905 10.8669 15.62 11.5951C15.62 11.8067 15.6004 12.0183 15.5684 12.2274C14.4883 12.3627 13.5461 12.9458 12.936 13.7872C12.7268 13.706 12.5226 13.6125 12.3258 13.4993C11.7108 13.1106 11.3147 12.5398 11.1621 11.7993C11.0883 11.1474 10.7168 10.5372 10.1043 10.183C9.5015 9.83606 8.80035 9.81392 8.20744 10.0624C7.5604 10.3133 6.85186 10.3084 6.23927 10.0599C5.6562 9.83361 5.19122 9.30958 5.07067 8.67977C5.00671 8.24185 4.75084 7.83592 4.33507 7.59728C3.61669 7.1815 2.69657 7.42998 2.28326 8.14836C1.86748 8.86674 2.11596 9.78686 2.83434 10.2002C3.24766 10.4388 3.7274 10.4585 4.13825 10.2937C4.23912 10.2592 4.33507 10.2346 4.42364 10.2223C5.68326 10.0107 6.73131 11.1203 6.90845 12.316C6.90845 12.316 6.90845 12.316 6.90845 12.3135C6.99209 12.9531 7.36113 13.5485 7.96142 13.8954C8.57401 14.2497 9.28747 14.2644 9.89022 14.0012C10.6086 13.7626 11.2999 13.8216 11.9445 14.1586C12.1413 14.2743 12.3283 14.4047 12.5054 14.5474C12.3111 15.0074 12.2053 15.5118 12.2053 16.0407C12.2053 16.5697 12.316 17.0937 12.5177 17.5611C12.3381 17.7087 12.1487 17.8416 11.9469 17.9572C11.3024 18.2943 10.6111 18.3533 9.89268 18.1147C9.28993 17.8514 8.57646 17.8686 7.96387 18.2229C7.36112 18.5698 6.99209 19.1676 6.9109 19.8073C6.80511 20.4937 6.44593 21.1063 5.92436 21.5097C5.43478 21.9009 4.75084 22.0411 4.14317 21.832C3.73232 21.6697 3.25258 21.6869 2.83926 21.9255C2.12088 22.3413 1.87486 23.259 2.29064 23.9773C2.70641 24.6957 3.62407 24.9417 4.34245 24.526C4.75576 24.2873 5.01163 23.8814 5.07559 23.4435C5.09527 23.3377 5.12234 23.2442 5.15432 23.1605C5.60208 21.9624 7.08558 21.6106 8.20989 22.0559C8.80526 22.3044 9.50643 22.2823 10.1067 21.9354C10.7193 21.5811 11.0908 20.971 11.1646 20.319C11.3171 19.5785 11.7132 19.0102 12.3283 18.619C12.53 18.5058 12.7391 18.4074 12.9556 18.3262C13.5658 19.1504 14.4982 19.7236 15.5659 19.8565C15.6004 20.0754 15.62 20.2969 15.62 20.5183C15.5905 21.2465 15.2953 21.8739 14.7294 22.3757C14.2005 22.7669 13.8585 23.3918 13.8585 24.1003C13.8585 24.8089 14.1907 25.4141 14.7024 25.8053H14.6999C15.2412 26.2383 15.5905 26.8558 15.6791 27.5102C15.7726 28.1302 15.5512 28.7944 15.0665 29.2127C14.7196 29.4882 14.4957 29.9114 14.4957 30.3886C14.4957 31.2177 15.1674 31.8918 15.9989 31.8918C16.8305 31.8918 17.5021 31.2202 17.5021 30.3886C17.5021 29.9114 17.2782 29.4882 16.9313 29.2127C16.8501 29.1413 16.7813 29.0724 16.7271 29.0011C15.9128 28.0145 16.3507 26.5532 17.3004 25.8028H17.2979C17.8121 25.4116 18.1418 24.7941 18.1418 24.0979C18.1418 23.4017 17.7998 22.7645 17.2708 22.3733C16.705 21.8714 16.4098 21.244 16.3802 20.5158C16.3802 20.2969 16.3999 20.0804 16.4344 19.8663C17.5316 19.7581 18.4936 19.1873 19.1234 18.3508C19.3128 18.4271 19.4973 18.5132 19.6745 18.6141C20.2895 19.0028 20.6856 19.5736 20.8381 20.3141C20.9119 20.966 21.2834 21.5762 21.896 21.9304C22.4988 22.2773 23.1999 22.2995 23.7928 22.051C24.4399 21.8001 25.1484 21.805 25.761 22.0534C26.3441 22.2798 26.8091 22.8038 26.9296 23.4336C26.9936 23.8715 27.2494 24.2775 27.6652 24.5161C28.3836 24.9319 29.3037 24.6834 29.717 23.965C30.1303 23.2467 29.8843 22.3265 29.1659 21.9132V21.9157Z" fill="black"/>
<path d="M21.5 25.5764C20.7816 25.9922 20.5356 26.9099 20.9514 27.6282C21.3671 28.3466 22.2848 28.5926 23.0032 28.1769C23.7216 27.7611 23.9676 26.8434 23.5518 26.1251C23.136 25.4067 22.2184 25.1606 21.5 25.5764Z" fill="black"/>
<path d="M10.5004 6.53441C11.2188 6.11863 11.4648 5.20098 11.0491 4.4826C10.6333 3.76421 9.71562 3.51819 8.99724 3.93397C8.27886 4.34974 8.03284 5.2674 8.44861 5.98578C8.86439 6.70416 9.78205 6.95018 10.5004 6.53441Z" fill="black"/>
<path d="M21.3302 6.43849C22.056 6.83951 22.9712 6.57872 23.3722 5.85296C23.7732 5.1272 23.5124 4.212 22.7867 3.81099C22.0609 3.40998 21.1457 3.67076 20.7447 4.39652C20.3437 5.12228 20.6045 6.03748 21.3302 6.43849Z" fill="black"/>
<path d="M10.6702 25.6724C9.9444 25.2714 9.0292 25.5321 8.62819 26.2579C8.22718 26.9837 8.48796 27.8989 9.21372 28.2999C9.93948 28.7009 10.8547 28.4401 11.2557 27.7143C11.6567 26.9886 11.3959 26.0734 10.6702 25.6724Z" fill="black"/>
</svg>
