<svg width="188" height="43" viewBox="0 0 188 43" fill="none" xmlns="http://www.w3.org/2000/svg">
<path d="M35.9758 23.5408C37.1029 23.5408 38.0166 22.6271 38.0166 21.5C38.0166 20.3729 37.1029 19.4592 35.9758 19.4592C34.8488 19.4592 33.9351 20.3729 33.9351 21.5C33.9351 22.6271 34.8488 23.5408 35.9758 23.5408Z" fill="black"/>
<path d="M2.04078 23.5408C3.16787 23.5408 4.08155 22.6271 4.08155 21.5C4.08155 20.3729 3.16787 19.4592 2.04078 19.4592C0.913688 19.4592 0 20.3729 0 21.5C0 22.6271 0.913688 23.5408 2.04078 23.5408Z" fill="black"/>
<path d="M36.8844 29.456C36.3232 29.132 35.6719 29.1053 35.1141 29.3291C34.9772 29.3759 34.8469 29.4093 34.7267 29.426C33.0165 29.7132 31.5937 28.2069 31.3532 26.5836C31.2396 25.7152 30.7386 24.9069 29.9237 24.4359C29.092 23.9549 28.1234 23.9349 27.305 24.2923C26.3297 24.6163 25.3912 24.5361 24.5161 24.0785C24.2823 23.9416 24.0552 23.7846 23.8414 23.6176C24.1353 22.9663 24.299 22.2415 24.299 21.48C24.299 20.7184 24.1387 20.0137 23.8514 19.369C24.0618 19.2054 24.2823 19.0551 24.5127 18.9215C25.3878 18.4639 26.3264 18.3837 27.3017 18.7077C28.12 19.0651 29.0886 19.0417 29.9203 18.5607C30.7386 18.0898 31.2396 17.2782 31.3499 16.4097C31.4935 15.4779 31.9811 14.6462 32.6892 14.0984C33.3539 13.5673 34.2824 13.377 35.1074 13.6609C35.6652 13.8813 36.3165 13.8579 36.8777 13.5339C37.853 12.9695 38.187 11.7236 37.6225 10.7483C37.058 9.77303 35.8122 9.43902 34.8369 10.0035C34.2758 10.3275 33.9284 10.8786 33.8415 11.4731C33.8148 11.6167 33.7781 11.7437 33.7347 11.8572C33.1268 13.4838 31.1127 13.9615 29.5863 13.3569C28.778 13.0196 27.8261 13.0496 27.0111 13.5206C26.1794 14.0016 25.6751 14.8299 25.5749 15.715C25.3678 16.7204 24.8301 17.4953 23.995 18.023C23.7612 18.1566 23.5174 18.2702 23.2702 18.3704C22.4152 17.218 21.0959 16.4298 19.5895 16.2828C19.5494 16.0056 19.526 15.725 19.526 15.4411C19.5661 14.4525 19.9669 13.6007 20.7351 12.9194C21.4532 12.3883 21.9175 11.5399 21.9175 10.578C21.9175 9.61605 21.4666 8.79439 20.7719 8.26332H20.7752C20.0404 7.67547 19.5661 6.83711 19.4459 5.94866C19.3189 5.10696 19.6196 4.20514 20.2775 3.63733C20.7485 3.26324 21.0524 2.68875 21.0524 2.04078C21.0524 0.915178 20.1406 0 19.0117 0C17.8827 0 16.9709 0.911838 16.9709 2.04078C16.9709 2.68875 17.2748 3.26658 17.7458 3.63733C17.856 3.73419 17.9495 3.82771 18.023 3.92458C19.1286 5.26394 18.534 7.24794 17.2448 8.26666H17.2481C16.55 8.79773 16.1025 9.63609 16.1025 10.5813C16.1025 11.5266 16.5667 12.3916 17.2848 12.9227C18.0531 13.6041 18.4539 14.4558 18.494 15.4445C18.494 15.7317 18.4672 16.019 18.4238 16.3029C16.9575 16.4866 15.6783 17.2782 14.8499 18.4205C14.566 18.3102 14.2888 18.1833 14.0216 18.0297C13.1866 17.5019 12.6488 16.727 12.4417 15.7217C12.3415 14.8366 11.8372 14.0082 11.0055 13.5273C10.1872 13.0563 9.23529 13.0263 8.43034 13.3636C7.5519 13.7043 6.58996 13.6976 5.75828 13.3603C4.96669 13.053 4.33542 12.3415 4.17175 11.4865C4.08491 10.892 3.73754 10.3408 3.17307 10.0169C2.19777 9.45239 0.94859 9.78973 0.387459 10.765C-0.177012 11.7403 0.160331 12.9895 1.13563 13.5506C1.69676 13.8746 2.34808 13.9013 2.90587 13.6776C3.04281 13.6308 3.17307 13.5974 3.29331 13.5807C5.00343 13.2935 6.4263 14.7998 6.66678 16.4231C6.66678 16.4231 6.66678 16.4231 6.66678 16.4198C6.78035 17.2882 7.28135 18.0965 8.09633 18.5674C8.92801 19.0484 9.89662 19.0684 10.7149 18.711C11.6902 18.3871 12.6288 18.4672 13.5039 18.9248C13.7711 19.0818 14.0249 19.2588 14.2654 19.4525C14.0016 20.0771 13.8579 20.7618 13.8579 21.48C13.8579 22.1981 14.0082 22.9095 14.2821 23.5441C14.0383 23.7445 13.7811 23.9249 13.5072 24.0819C12.6321 24.5395 11.6936 24.6196 10.7183 24.2956C9.89997 23.9382 8.93134 23.9616 8.09966 24.4426C7.28135 24.9135 6.78034 25.7252 6.67012 26.5936C6.52649 27.5255 6.03885 28.3572 5.33076 28.9049C4.66608 29.436 3.73754 29.6264 2.91255 29.3425C2.35476 29.122 1.70344 29.1454 1.14231 29.4694C0.167013 30.0339 -0.166992 31.2797 0.397479 32.255C0.96195 33.2303 2.20779 33.5643 3.18309 32.9998C3.74422 32.6759 4.09159 32.1247 4.17843 31.5302C4.20515 31.3866 4.24189 31.2597 4.28531 31.1461C4.89321 29.5195 6.90726 29.0419 8.43367 29.6464C9.24197 29.9838 10.1939 29.9537 11.0089 29.4828C11.8405 29.0018 12.3449 28.1734 12.4451 27.2883C12.6522 26.283 13.1899 25.5114 14.0249 24.9803C14.2988 24.8267 14.5827 24.6931 14.8767 24.5829C15.705 25.7018 16.9709 26.48 18.4205 26.6604C18.4672 26.9577 18.494 27.2583 18.494 27.5589C18.4539 28.5475 18.0531 29.3993 17.2848 30.0806C16.5667 30.6117 16.1025 31.4601 16.1025 32.422C16.1025 33.3839 16.5534 34.2056 17.2481 34.7367H17.2448C17.9796 35.3245 18.4539 36.1629 18.5741 37.0513C18.701 37.893 18.4004 38.7949 17.7424 39.3627C17.2715 39.7368 16.9675 40.3112 16.9675 40.9592C16.9675 42.0848 17.8794 43 19.0083 43C20.1373 43 21.0491 42.0882 21.0491 40.9592C21.0491 40.3112 20.7452 39.7368 20.2742 39.3627C20.164 39.2658 20.0705 39.1723 19.997 39.0754C18.8914 37.7361 19.4859 35.7521 20.7752 34.7333H20.7719C21.4699 34.2023 21.9175 33.3639 21.9175 32.4187C21.9175 31.4734 21.4532 30.6084 20.7351 30.0773C19.9669 29.3959 19.5661 28.5442 19.526 27.5555C19.526 27.2583 19.5528 26.9643 19.5995 26.6738C21.0892 26.5268 22.3951 25.7519 23.2502 24.6163C23.5074 24.7198 23.7579 24.8367 23.9984 24.9737C24.8334 25.5014 25.3711 26.2763 25.5782 27.2817C25.6784 28.1668 26.1828 28.9951 27.0145 29.4761C27.8328 29.947 28.7847 29.9771 29.5897 29.6397C30.4681 29.2991 31.43 29.3057 32.2617 29.6431C33.0533 29.9504 33.6846 30.6618 33.8482 31.5169C33.9351 32.1114 34.2824 32.6625 34.8469 32.9865C35.8222 33.551 37.0714 33.2136 37.6325 32.2383C38.1937 31.263 37.8597 30.0138 36.8844 29.4527V29.456Z" fill="black"/>
<path d="M26.4766 34.426C25.5013 34.9905 25.1673 36.2364 25.7318 37.2117C26.2963 38.187 27.5421 38.521 28.5174 37.9565C29.4927 37.392 29.8267 36.1462 29.2623 35.1709C28.6978 34.1956 27.4519 33.8616 26.4766 34.426Z" fill="black"/>
<path d="M11.5433 8.57395C12.5186 8.00948 12.8526 6.76363 12.2881 5.78833C11.7237 4.81303 10.4778 4.47902 9.50253 5.04349C8.52723 5.60797 8.19322 6.85381 8.75769 7.82911C9.32216 8.80441 10.568 9.13842 11.5433 8.57395Z" fill="black"/>
<path d="M26.2461 8.44368C27.2315 8.98811 28.474 8.63407 29.0184 7.64875C29.5628 6.66343 29.2088 5.42092 28.2235 4.87649C27.2381 4.33206 25.9956 4.68611 25.4512 5.67143C24.9068 6.65675 25.2608 7.89925 26.2461 8.44368Z" fill="black"/>
<path d="M11.7737 34.5563C10.7884 34.0119 9.54593 34.3659 9.0015 35.3513C8.45707 36.3366 8.81112 37.5791 9.79644 38.1235C10.7818 38.6679 12.0243 38.3139 12.5687 37.3286C13.1131 36.3432 12.7591 35.1007 11.7737 34.5563Z" fill="black"/>
<path d="M56.1232 37.2684H50.6755V5.25726H56.1232V37.2684ZM75.9999 37.2684H69.597L62.7165 27.7125H53.6849V22.8394H62.7165L69.6438 13.5239H76.0467L67.1588 24.8935L75.9966 37.2684H75.9999Z" fill="black"/>
<path d="M87.5331 37.7461C84.9211 37.7461 82.6432 37.2751 80.6993 36.3366C78.7554 35.398 77.2423 34.0052 76.1601 32.1548C75.078 30.3078 74.5369 28.0465 74.5369 25.3711C74.5369 22.9195 75.078 20.7618 76.1601 18.8981C77.2423 17.0343 78.7487 15.5948 80.6759 14.5727C82.6031 13.554 84.8577 13.043 87.4362 13.043C90.0147 13.043 92.0956 13.4805 93.9593 14.3556C95.8231 15.2307 97.2794 16.5133 98.3315 18.2C99.3836 19.8901 99.908 21.9442 99.908 24.3624C99.908 24.7766 99.8913 25.1574 99.8613 25.5081C99.8279 25.8588 99.7811 26.2095 99.7176 26.5602H78.074V23.5976H96.0369L94.6507 25.4146C94.6808 25.1273 94.7075 24.8267 94.7209 24.5061C94.7376 24.1887 94.7443 23.8681 94.7443 23.5508C94.7443 21.4499 94.1297 19.8801 92.9039 18.8446C91.6781 17.8092 89.821 17.2915 87.3393 17.2915C84.537 17.2915 82.553 17.9194 81.3907 19.1787C80.2283 20.4379 79.6472 22.2615 79.6472 24.6497V25.989C79.6472 28.3772 80.2283 30.2009 81.3907 31.4601C82.553 32.7193 84.537 33.3472 87.3393 33.3472C89.791 33.3472 91.5512 32.9731 92.62 32.2249C93.6855 31.4768 94.2199 30.4347 94.2199 29.0953V28.7145H99.6675V29.1454C99.6675 30.8355 99.1498 32.3218 98.1144 33.6111C97.079 34.9003 95.6528 35.9124 93.8391 36.6439C92.0221 37.3753 89.9212 37.7427 87.5331 37.7427V37.7461Z" fill="black"/>
<path d="M108.125 37.2684H102.677V13.5239H107.694V20.2141L108.125 20.4546V37.2718V37.2684ZM108.125 23.8881H106.882V19.8734H108.028C108.252 18.5674 108.696 17.3984 109.364 16.363C110.032 15.3276 110.934 14.5159 112.063 13.9281C113.192 13.3402 114.571 13.043 116.194 13.043C118.011 13.043 119.484 13.417 120.613 14.1652C121.742 14.9134 122.57 15.9254 123.098 17.198C123.623 18.4706 123.886 19.8734 123.886 21.4031V24.6029H118.439V22.4519C118.439 20.7952 118.071 19.5861 117.34 18.8213C116.605 18.0564 115.366 17.6756 113.612 17.6756C111.668 17.6756 110.269 18.2 109.407 19.2521C108.545 20.3043 108.118 21.8474 108.118 23.8881H108.125Z" fill="black"/>
<path d="M131.535 37.2684H126.087V13.5239H131.104V20.9789L131.535 21.2194V37.2718V37.2684ZM151.078 37.2684H145.68V24.4159C145.68 22.2181 145.156 20.5848 144.104 19.5193C143.052 18.4539 141.301 17.9194 138.85 17.9194C136.398 17.9194 134.448 18.5574 133.285 19.83C132.123 21.1059 131.542 22.983 131.542 25.468L130.633 25.5148L130.299 20.8787H131.445C131.669 19.5394 132.17 18.2735 132.951 17.0811C133.733 15.8853 134.815 14.9167 136.201 14.1652C137.587 13.417 139.297 13.043 141.338 13.043C143.536 13.043 145.36 13.4805 146.809 14.3556C148.259 15.2307 149.334 16.4198 150.036 17.9161C150.737 19.4125 151.088 21.0691 151.088 22.8861V37.2684H151.078Z" fill="black"/>
<path d="M166.699 37.7461C164.087 37.7461 161.809 37.2751 159.866 36.3366C157.922 35.398 156.409 34.0052 155.326 32.1548C154.244 30.3078 153.703 28.0465 153.703 25.3711C153.703 22.9195 154.244 20.7618 155.326 18.8981C156.409 17.0343 157.915 15.5948 159.842 14.5727C161.769 13.554 164.024 13.043 166.602 13.043C169.181 13.043 171.262 13.4805 173.126 14.3556C174.989 15.2307 176.446 16.5133 177.498 18.2C178.55 19.8901 179.074 21.9442 179.074 24.3624C179.074 24.7766 179.058 25.1574 179.028 25.5081C178.994 25.8588 178.947 26.2095 178.884 26.5602H157.24V23.5976H175.203L173.817 25.4146C173.847 25.1273 173.874 24.8267 173.887 24.5061C173.904 24.1887 173.911 23.8681 173.911 23.5508C173.911 21.4499 173.296 19.8801 172.07 18.8446C170.844 17.8092 168.987 17.2915 166.506 17.2915C163.703 17.2915 161.719 17.9194 160.557 19.1787C159.395 20.4379 158.813 22.2615 158.813 24.6497V25.989C158.813 28.3772 159.395 30.2009 160.557 31.4601C161.719 32.7193 163.703 33.3472 166.506 33.3472C168.957 33.3472 170.717 32.9731 171.786 32.2249C172.852 31.4768 173.386 30.4347 173.386 29.0953V28.7145H178.834V29.1454C178.834 30.8355 178.316 32.3218 177.281 33.6111C176.245 34.9003 174.819 35.9124 173.005 36.6439C171.188 37.3753 169.087 37.7427 166.699 37.7427V37.7461Z" fill="black"/>
<path d="M187.291 37.2685H181.843V5.25727H187.291V37.2685Z" fill="black"/>
</svg>
